HIERARCHY
ROOT hip
{
	OFFSET 0.000000 0.000000 0.000000 
	CHANNELS 6 Xposition Yposition Zposition Xrotation Zrotation Yrotation
	JOINT abdomen
	{
		OFFSET 0.000000 3.402643 0.000000 
		CHANNELS 3 Xrotation Zrotation Yrotation
		JOINT chest
		{
			OFFSET 0.000000 8.438565 -0.680529 
			CHANNELS 3 Xrotation Zrotation Yrotation
			JOINT neck
			{
				OFFSET 0.000000 10.207942 -0.272212 
				CHANNELS 3 Xrotation Zrotation Yrotation
				JOINT head
				{
					OFFSET 0.000000 3.130431 0.000000 
					CHANNELS 3 Xrotation Zrotation Yrotation
					End Site
					{
						OFFSET 0.000000 3.130435 0.000000 
					}
				}
			}
			JOINT lCollar
			{
				OFFSET 3.470700 6.669187 -0.816635 
				CHANNELS 3 Yrotation Zrotation Xrotation
				JOINT lShldr
				{
					OFFSET 3.198488 0.000000 0.000000 
					CHANNELS 3 Zrotation Yrotation Xrotation
					JOINT lForeArm
					{
						OFFSET 10.139888 0.000000 0.000000 
						CHANNELS 3 Yrotation Zrotation Xrotation
						JOINT lHand
						{
							OFFSET 8.370511 0.000000 0.000000 
							CHANNELS 3 Zrotation Yrotation Xrotation
							End Site
							{
								OFFSET 4.083176 0.000000 0.000000 
							}
						}
					}
				}
			}
			JOINT rCollar
			{
				OFFSET -3.470700 6.669187 -0.816635 
				CHANNELS 3 Yrotation Zrotation Xrotation
				JOINT rShldr
				{
					OFFSET -3.198488 0.000000 0.000000 
					CHANNELS 3 Zrotation Yrotation Xrotation
					JOINT rForeArm
					{
						OFFSET -10.139888 0.000000 0.000000 
						CHANNELS 3 Yrotation Zrotation Xrotation
						JOINT rHand
						{
							OFFSET -8.370511 0.000000 0.000000 
							CHANNELS 3 Zrotation Yrotation Xrotation
							End Site
							{
								OFFSET -4.083176 0.000000 0.000000 
							}
						}
					}
				}
			}
		}
	}
	JOINT lThigh
	{
		OFFSET 5.308129 -1.633274 1.361059 
		CHANNELS 3 Xrotation Zrotation Yrotation
		JOINT lShin
		{
			OFFSET -2.041588 -20.007561 0.000000 
			CHANNELS 3 Xrotation Zrotation Yrotation
			JOINT lFoot
			{
				OFFSET 0.000000 -19.190928 -1.224953 
				CHANNELS 3 Xrotation Yrotation Zrotation
				End Site
				{
					OFFSET 0.000000 -2.449906 4.627600 
				}
			}
		}
	}
	JOINT rThigh
	{
		OFFSET -5.308129 -1.633274 1.361059 
		CHANNELS 3 Xrotation Zrotation Yrotation
		JOINT rShin
		{
			OFFSET 2.041588 -20.007561 0.000000 
			CHANNELS 3 Xrotation Zrotation Yrotation
			JOINT rFoot
			{
				OFFSET 0.000000 -19.190928 -1.224953 
				CHANNELS 3 Xrotation Yrotation Zrotation
				End Site
				{
					OFFSET 0.000000 -2.449906 4.627600 
				}
			}
		}
	}
}
MOTION
Frames: 15
Frame Time: 0.016667
5.454322 48.820847 -2.475118 2.158617 9.514852 -91.301620 0.711323 2.238772 2.214089 -2.783373 2.168111 0.614378 -6.239537 -3.575396 23.207136 17.366163 4.082808 11.205431 -0.966184 -2.090659 -0.113862 -100.948616 -52.658112 63.827286 -74.461349 -0.839212 24.379446 1.583257 -3.379608 5.140194 0.956406 2.080914 -0.113715 74.091530 27.437843 11.759809 118.652611 1.082808 -0.110032 -1.560848 3.282219 4.165934 -32.939877 8.180860 -0.152624 43.907707 4.964604 4.695005 -12.493485 -1.770136 -0.346890 -29.233934 -1.708779 4.524264 46.011482 -4.557713 -4.958873 -26.271622 0.739219 3.968135 
5.619954 48.777744 -2.500282 1.931768 9.672338 -91.540245 0.625529 2.268517 2.003193 -2.967221 2.369580 0.487766 -6.229977 -3.673952 23.560902 17.365845 4.053853 11.366991 -0.966184 -2.090659 -0.113862 -104.676620 -55.378929 68.166496 -74.143196 -0.835701 24.387480 1.583393 -3.379621 5.940975 0.956406 2.080914 -0.113715 73.338364 28.533018 8.948952 120.341988 1.095234 -0.103170 -1.573115 3.282421 5.492918 -32.781719 8.036605 0.336595 43.119778 5.045851 4.633730 -12.901595 -1.291109 -0.216782 -29.762598 -1.923647 4.447823 46.250374 -4.518718 -4.953141 -26.321564 1.075397 4.126586 
5.761822 48.745125 -2.514905 1.724492 9.819856 -91.843788 0.558864 2.214768 1.810966 -3.142043 2.485517 0.379507 -6.171107 -3.906554 23.942472 17.423740 3.976011 11.515424 -0.966184 -2.090659 -0.113862 -108.863350 -57.508835 72.697548 -73.559433 -0.831362 24.401348 1.583598 -3.379645 7.151913 0.956406 2.080914 -0.113715 72.767792 29.472429 6.390075 121.884750 1.099641 -0.093205 -1.574557 3.282569 6.264402 -32.577793 7.959033 0.818758 42.419128 5.051831 4.592589 -13.332087 -0.909565 -0.144352 -30.237986 -2.109299 4.428576 46.459080 -4.499259 -4.974329 -26.363464 1.355338 4.258697 
5.883274 48.726875 -2.517661 1.497168 9.957605 -92.210594 0.482375 2.068733 1.598937 -3.250565 2.381777 0.292650 -6.074265 -4.161984 24.301756 17.501322 3.907630 11.666533 -0.966184 -2.090659 -0.113862 -113.047951 -59.054527 77.080742 -72.788483 -0.822714 24.405058 1.592163 -3.389327 8.518523 0.956406 2.080914 -0.113715 72.479652 30.215210 4.191039 123.261734 1.112720 -0.090888 -1.573986 3.292332 6.557370 -32.376808 7.899018 1.218264 41.733589 5.098120 4.556658 -13.470260 -0.718936 -0.068171 -30.652157 -2.255435 4.473747 46.549232 -4.479628 -4.975935 -26.365675 1.611026 4.384817 
5.989038 48.719223 -2.520864 1.309536 10.143889 -92.541206 0.415520 1.905845 1.378327 -3.349423 2.258791 0.202310 -6.048593 -4.337199 24.601631 17.559534 3.858770 11.789886 -0.966184 -2.090659 -0.113862 -117.029350 -60.028557 81.062729 -72.000938 -0.823899 24.427259 1.592163 -3.389327 9.641569 0.956406 2.080914 -0.113715 72.307320 30.759703 2.326720 124.433372 1.123557 -0.077192 -1.574317 3.292370 6.752682 -32.446716 7.860426 1.333807 41.404190 5.127573 4.526011 -13.460103 -0.729718 -0.062787 -31.078125 -2.343606 4.613324 46.641346 -4.460274 -5.026542 -26.348894 1.832451 4.510561 
6.078943 48.715687 -2.531250 1.161405 10.329954 -92.760338 0.358170 1.789097 1.168301 -3.428263 2.183210 0.103797 -6.094097 -4.422353 24.843376 17.549643 3.849226 11.885367 -0.966184 -2.090659 -0.113862 -120.579971 -60.486210 84.452950 -71.252373 -0.814241 24.436049 1.592163 -3.389327 10.413054 0.956406 2.080914 -0.113715 72.138390 31.066404 0.698740 125.341553 1.129593 -0.074513 -1.566414 3.282769 7.143884 -32.632874 7.821519 1.265812 41.268719 5.108146 4.527763 -13.318285 -0.827036 -0.079452 -31.438343 -2.402283 4.760417 46.691120 -4.450457 -5.022459 -26.286831 1.940461 4.557772 
6.152375 48.717098 -2.554613 1.072537 10.466957 -92.910301 0.339660 1.738017 0.969755 -3.487057 2.164633 0.019229 -6.160212 -4.500181 25.066950 17.539755 3.839683 11.980854 -0.966184 -2.090659 -0.113862 56.452961 -119.504829 -92.872009 -70.565323 -0.811611 24.443521 1.592163 -3.389327 10.881804 0.956406 2.080914 -0.113715 71.980095 31.153742 -0.702431 126.024994 1.128159 -0.068322 -1.557396 3.282875 7.554617 -32.755856 7.810652 1.268111 41.120056 5.117895 4.530388 -13.226326 -0.895830 -0.092570 -31.681515 -2.363590 4.941229 46.689701 -4.453529 -4.994658 -26.144333 1.898345 4.535870 
6.208482 48.729935 -2.587653 0.983346 10.525827 -93.091286 0.340305 1.634460 0.818646 -3.497909 2.031210 -0.039895 -6.160231 -4.574644 25.242140 17.549440 3.829933 12.048351 -0.966184 -2.090659 -0.113862 54.300823 -119.791794 -90.997528 -69.974121 -0.808051 24.452225 1.592163 -3.389327 11.184539 0.956406 2.080914 -0.113715 71.934715 31.013628 -1.859096 126.562164 1.134929 -0.069260 -1.557615 3.282904 7.671804 -32.782578 7.861388 1.402717 40.949257 5.139583 4.508058 -13.186595 -0.911776 -0.078642 -31.851570 -2.256180 5.246118 46.681503 -4.436603 -4.997310 -25.980928 1.785658 4.477438 
6.246057 48.752541 -2.622803 0.824579 10.584867 -93.353371 0.369969 1.439361 0.714858 -3.450882 1.782937 -0.063792 -6.092212 -4.632091 25.395784 17.598373 3.829419 12.119972 -0.966184 -2.090659 -0.113862 53.072811 -120.293686 -89.962860 -69.509117 -0.803882 24.467764 1.592163 -3.389327 11.389616 0.956406 2.080914 -0.113715 72.019760 30.692114 -2.705873 127.001518 1.134039 -0.065323 -1.557378 3.282872 7.544851 -32.700249 7.840662 1.600140 40.728584 5.166705 4.486657 -13.084013 -0.836366 -0.027819 -31.959745 -2.168239 5.655447 46.621933 -4.446420 -5.001405 -25.762535 1.710799 4.454442 
6.267748 48.781162 -2.655715 0.635963 10.653657 -93.591782 0.409395 1.181271 0.591813 -3.355281 1.448687 -0.076678 -5.985356 -4.729013 25.547646 17.666780 3.819049 12.181593 -0.966184 -2.090659 -0.113862 52.676495 -120.875702 -89.730255 -69.183243 -0.801658 24.467438 1.592163 -3.389327 11.457975 0.956406 2.080914 -0.113715 72.189003 30.261679 -3.183659 127.274933 1.147186 -0.061012 -1.557233 3.282853 7.466726 -32.607166 7.734686 1.692314 40.462635 5.159276 4.462801 -12.956325 -0.646945 0.016137 -32.049343 -2.158312 6.025229 46.551624 -4.463326 -4.997981 -25.550362 1.663639 4.450123 
6.279876 48.809654 -2.693962 0.487019 10.722279 -93.756813 0.448777 0.994224 0.459514 -3.259149 1.143266 -0.103807 -5.907773 -4.825535 25.703394 17.715611 3.808887 12.251659 -0.966184 -2.090659 -0.113862 52.859135 -121.520416 -90.085182 -69.017845 -0.794342 24.465889 1.592163 -3.389327 11.360321 0.956406 2.080914 -0.113715 72.294319 29.758278 -3.354146 127.411621 1.146925 -0.059817 -1.557124 3.282839 7.408133 -32.512493 7.595718 1.654731 40.220425 5.202519 4.446828 -12.817978 -0.405692 0.086260 -32.161797 -2.168567 6.330454 46.483864 -4.456232 -5.004734 -25.363819 1.662749 4.443355 
6.285257 48.836620 -2.741839 0.407625 10.810280 -93.829323 0.468500 0.867489 0.355331 -3.191739 0.904843 -0.117310 -5.849864 -4.941234 25.864569 17.764338 3.789084 12.310392 -0.966184 -2.090659 -0.113862 53.524612 -122.226357 -90.891586 -69.005051 -0.798683 24.468903 1.592163 -3.389327 11.057584 0.956406 2.080914 -0.113715 72.351860 29.174265 -3.278254 127.431137 1.146888 -0.059646 -1.566432 3.282771 7.153649 -32.485214 7.518596 1.478802 40.024063 5.196158 4.443187 -12.675379 -0.154647 0.128027 -32.230312 -2.119316 6.528066 46.394966 -4.453469 -4.984202 -25.199499 1.636576 4.431893 
6.285670 48.860878 -2.800940 0.377885 10.878676 -93.844139 0.468617 0.754923 0.269705 -3.163205 0.657126 -0.134001 -5.786707 -5.076037 25.956543 17.812756 3.740363 12.335110 -0.966184 -2.090659 -0.113862 54.560123 -122.974632 -92.029922 -69.100548 -0.797999 24.466713 1.592163 -3.389327 10.559538 0.956406 2.080914 -0.113715 72.438026 28.513344 -3.089279 127.372566 1.146999 -0.060158 -1.574152 3.292351 6.655026 -32.467728 7.489423 1.292066 39.851334 5.222102 4.392248 -12.528834 0.022299 0.207544 -32.257595 -2.031996 6.671000 46.326073 -4.456084 -4.985643 -25.061954 1.554468 4.384946 
6.283916 48.881836 -2.874193 0.348132 10.947068 -93.829727 0.458906 0.644074 0.212208 -3.163696 0.428561 -0.137068 -5.766094 -5.169559 25.992296 17.851595 3.711033 12.352486 -0.966184 -2.090659 -0.113862 -124.141212 -56.214344 86.607552 -69.226486 -0.797563 24.470884 1.592163 -3.389327 9.895475 0.956406 2.080914 -0.113715 72.554535 27.824091 -2.792078 127.206573 1.147317 -0.061609 -1.574283 3.282539 6.117918 -32.470631 7.490515 1.137411 39.696747 5.208465 4.425200 -12.400739 0.130256 0.218780 -32.302158 -1.933488 6.781329 46.275681 -4.479590 -5.005008 -24.903908 1.472466 4.349032 
6.279111 48.898911 -2.959458 0.308407 11.005704 -93.758705 0.468695 0.603296 0.183759 -3.163786 0.371419 -0.140277 -5.790232 -5.321561 25.961721 17.860771 3.653099 12.313782 -0.966184 -2.090659 -0.113862 -122.893806 -55.361355 85.153885 -69.309326 -0.804680 24.462542 1.592163 -3.389327 9.163054 0.956406 2.080914 -0.113715 72.591370 27.130205 -2.463904 126.923409 1.134195 -0.066023 -1.573298 3.282439 5.590574 -32.402821 7.459116 1.075123 39.447350 5.221451 4.389060 -12.213554 0.216114 0.240151 -32.305111 -1.875828 6.893688 46.266678 -4.463133 -4.988575 -24.798225 1.345116 4.319429 
